# xmcd
#
# Track frame offsets:
#	150
#	11477
#	24050
#	42294
#	56054
#	71955
#	84611
#	98002
#	109170
#	131955
#	142767
#	152803
#	168861
#	179153
#	196834
#	211325
#	219951
#
# Disc length: 3099 seconds
#
# Revision: 1
# Processed by: cddbd v1.5.2PL0 Copyright (c) Steve Scherf et al.
# Submitted via: audiograbber 1.83.01
#
DISCID=ea0c1911
DTITLE=Stormy Mtn Boys - Eye of the Storm
DYEAR=2004
DGENRE=Bluegrass
TTITLE0=Mary Jane
TTITLE1=Roustabout
TTITLE2=Rainbow Bridge
TTITLE3=Paul and Silas
TTITLE4=Making Plans
TTITLE5=Hit Parade of Love
TTITLE6=Flat Broke and Lonesome
TTITLE7=Dancin' Thatcher
TTITLE8=Erase the Miles
TTITLE9=Power in the Blood
TTITLE10=Come Back to Me In My Dreams
TTITLE11=Foggy Mtn Rock
TTITLE12=Long Black Veil
TTITLE13=My Walkin' Shoes Don't Fit Me Anymore
TTITLE14=They Won't Believe on Me
TTITLE15=Bluegrass Express
TTITLE16=Rawhide
EXTD=
EXTT0=
EXTT1=
EXTT2=
EXTT3=
EXTT4=
EXTT5=
EXTT6=
EXTT7=
EXTT8=
EXTT9=
EXTT10=
EXTT11=
EXTT12=
EXTT13=
EXTT14=
EXTT15=
EXTT16=
PLAYORDER=
